<?xml version="1.0" standalone="no"?>
<!DOCTYPE svg PUBLIC "-//W3C//DTD SVG 20010904//EN"
 "http://www.w3.org/TR/2001/REC-SVG-20010904/DTD/svg10.dtd">
<svg version="1.0" xmlns="http://www.w3.org/2000/svg"
 width="512.000000pt" height="512.000000pt" viewBox="0 0 512.000000 512.000000"
 preserveAspectRatio="xMidYMid meet">
<metadata>
Created by potrace 1.14, written by Peter Selinger 2001-2017
</metadata>
<g transform="translate(0.000000,512.000000) scale(0.100000,-0.100000)"
fill="#000000" stroke="none">
<path d="M2310 4625 c-120 -16 -143 -20 -265 -51 -186 -46 -443 -156 -583
-249 -30 -19 -56 -35 -58 -35 -6 0 -128 -94 -189 -145 -165 -140 -330 -333
-429 -501 -26 -43 -51 -86 -57 -94 -29 -48 -114 -244 -142 -330 -32 -101 -74
-271 -83 -340 -3 -25 -8 -56 -11 -70 -9 -45 -11 -404 -3 -475 41 -343 151
-648 331 -921 39 -60 75 -111 78 -114 3 -3 24 -27 46 -55 107 -136 293 -306
445 -405 24 -16 45 -28 46 -27 2 1 4 132 5 290 2 366 18 458 109 655 87 185
253 372 414 467 l46 27 -48 37 c-43 35 -88 78 -143 141 -32 37 -102 148 -127
202 -67 146 -92 271 -88 433 8 263 94 463 281 650 115 114 193 165 350 226
119 47 323 69 450 49 148 -23 184 -34 319 -102 92 -45 144 -84 232 -172 183
-182 274 -397 279 -656 6 -292 -106 -549 -322 -740 -40 -36 -73 -68 -73 -71 0
-3 10 -10 23 -16 84 -39 266 -211 342 -325 75 -110 145 -268 161 -357 1 -7 7
-34 13 -60 17 -75 20 -142 21 -419 l0 -262 58 37 c31 21 59 40 62 43 3 3 38
32 79 64 217 173 400 399 532 656 112 216 163 378 214 680 11 60 14 401 4 480
-30 267 -89 471 -204 707 -154 315 -389 587 -691 801 -44 31 -191 117 -255
148 -120 60 -321 133 -409 150 -14 3 -50 11 -80 19 -30 8 -77 17 -105 20 -27
4 -61 9 -75 11 -57 12 -410 10 -500 -1z"/>
<path d="M2408 3661 c-296 -76 -501 -349 -484 -644 7 -111 13 -140 48 -225 73
-175 212 -301 403 -363 102 -33 271 -33 374 0 181 60 328 194 401 369 36 85
40 105 45 222 8 181 -54 338 -184 470 -95 94 -176 140 -321 177 -51 14 -221
10 -282 -6z"/>
<path d="M2425 2069 c-64 -12 -169 -46 -220 -72 -154 -77 -300 -226 -365 -372
-12 -28 -26 -59 -31 -70 -38 -86 -42 -136 -47 -526 l-4 -386 64 -25 c146 -58
332 -103 513 -125 77 -9 361 -10 445 -1 155 16 356 64 498 118 l83 32 -2 368
c-1 375 -4 407 -44 532 -83 255 -323 465 -600 523 -52 11 -238 13 -290 4z"/>
</g>
</svg>
